<?xml version="1.0" encoding="UTF-8"?>
<svg xmlns="http://www.w3.org/2000/svg" width="280mm" height="280mm" version="1.1" viewBox="0 0 793.7 793.7">
  <!-- Generator: Adobe Illustrator 30.2.1, SVG Export Plug-In . SVG Version: 2.1.1 Build 1)  -->
  <g id="Capa_2">
    <rect x=".5" width="793.7" height="793.7" stroke="#fff" stroke-miterlimit="10"/>
  </g>
  <g id="Capa_1">
    <g id="Kotty_White">
      <path id="K" d="M88.65,457.5v-171.8h34.7v76.3l70.1-76.3h46.6l-64.7,66.9,68.2,104.9h-44.9l-47.2-80.6-28.2,28.6v52h-34.6Z" fill="#fff"/>
      <path id="o" d="M253.65,393.5c0-10.9,2.7-21.5,8.1-31.8,5.4-10.2,13-18,22.9-23.4s20.9-8.1,33.1-8.1c18.8,0,34.3,6.1,46.3,18.3s18,27.7,18,46.3-6.1,34.4-18.2,46.8c-12.1,12.4-27.4,18.6-45.9,18.6-11.4,0-22.3-2.6-32.6-7.7-10.4-5.2-18.2-12.7-23.6-22.7s-8.1-22-8.1-36.3ZM287.35,395.2c0,12.3,2.9,21.8,8.8,28.4s13.1,9.8,21.7,9.8,15.8-3.3,21.6-9.8c5.8-6.6,8.7-16.1,8.7-28.6s-2.9-21.6-8.7-28.1c-5.8-6.6-13-9.8-21.6-9.8s-15.8,3.3-21.7,9.8-8.8,16-8.8,28.3Z" fill="#fff"/>
      <path id="t" d="M464.85,333v26.2h-22.5v50.2c0,10.2.2,16.1.6,17.8.4,1.7,1.4,3.1,2.9,4.2s3.4,1.6,5.6,1.6c3,0,7.5-1.1,13.2-3.2l2.8,25.5c-7.7,3.3-16.3,4.9-26,4.9-5.9,0-11.3-1-16.1-3s-8.3-4.6-10.5-7.7-3.8-7.4-4.6-12.8c-.7-3.8-1.1-11.6-1.1-23.2v-54.3h-15.1v-26.2h15.1v-24.7l33-19.2v43.9h22.7Z" fill="#fff"/>
      <path id="t1" data-name="t" d="M559.85,333v26.2h-22.5v50.2c0,10.2.2,16.1.6,17.8.4,1.7,1.4,3.1,2.9,4.2s3.4,1.6,5.6,1.6c3,0,7.5-1.1,13.2-3.2l2.8,25.5c-7.7,3.3-16.3,4.9-26,4.9-5.9,0-11.3-1-16.1-3s-8.3-4.6-10.5-7.7-3.8-7.4-4.6-12.8c-.7-3.8-1.1-11.6-1.1-23.2v-54.3h-15.1v-26.2h15.1v-24.7l33-19.2v43.9h22.7Z" fill="#fff"/>
      <path id="y" d="M578.05,333h35l29.8,88.4,29.1-88.4h34.1l-43.9,119.8-7.9,21.7c-2.9,7.3-5.6,12.8-8.3,16.6-2.6,3.8-5.6,6.9-9,9.3s-7.6,4.2-12.5,5.6c-5,1.3-10.6,2-16.8,2s-12.5-.7-18.6-2l-2.9-25.8c5.2,1,9.8,1.5,13.9,1.5,7.7,0,13.3-2.2,17-6.7s6.5-10.2,8.4-17.2l-47.4-124.8Z" fill="#fff"/>
    </g>
  </g>
</svg>